<svg width="70" height="70" viewBox="0 0 70 70" fill="none" xmlns="http://www.w3.org/2000/svg">
<g filter="url(#filter0_d_30_7)">
<circle cx="35" cy="35" r="27" fill="white"/>
<path d="M28.1978 45.091C27.6594 45.091 27.2142 44.9171 26.8622 44.5694C26.5102 44.2216 26.3341 43.7819 26.3341 43.25C26.3341 42.8819 26.4273 42.529 26.6137 42.1915C26.8001 41.854 27.0692 41.6137 27.4213 41.4705L32.7637 39.3841V35.15C31.397 36.8069 30.0097 38.0546 28.6016 38.8932C27.1935 39.7319 25.599 40.1512 23.8182 40.1512V38.3103C25.2263 38.3103 26.5102 37.9881 27.6698 37.3438C28.8293 36.6995 29.8751 35.7944 30.8069 34.6285L32.6084 32.6341C32.8155 32.3887 33.0588 32.1841 33.3383 32.0205C33.6179 31.8569 33.9233 31.775 34.2546 31.775H35.7455C36.0768 31.775 36.3874 31.8569 36.6773 32.0205C36.9672 32.1841 37.2157 32.3887 37.4228 32.6341L39.2243 34.6285C40.2182 35.7535 41.2743 36.6483 42.3925 37.3131C43.5107 37.9779 44.7738 38.3103 46.1819 38.3103V40.1512C44.4218 40.1512 42.8325 39.7319 41.4141 38.8932C39.9956 38.0546 38.6031 36.8069 37.2364 35.15V39.3841L42.5788 41.4705C42.9309 41.6137 43.2001 41.854 43.3864 42.1915C43.5728 42.529 43.666 42.8819 43.666 43.25C43.666 43.7819 43.49 44.2216 43.1379 44.5694C42.7859 44.9171 42.3407 45.091 41.8023 45.091H32.391V44.7535C32.391 44.2216 32.5566 43.7921 32.8879 43.4648C33.2192 43.1375 33.6541 42.9739 34.1925 42.9739H38.3235C38.4892 42.9739 38.6341 42.9125 38.7584 42.7898C38.8826 42.6671 38.9448 42.5239 38.9448 42.3603C38.9448 42.1966 38.8826 42.0535 38.7584 41.9307C38.6341 41.808 38.4892 41.7466 38.3235 41.7466H34.1925C33.2814 41.7466 32.5566 42.0228 32.0182 42.575C31.4799 43.1273 31.2107 43.8535 31.2107 44.7535V45.091H28.1978ZM35.0001 29.9341C34.3788 29.9341 33.8456 29.7142 33.4004 29.2745C32.9552 28.8347 32.7326 28.308 32.7326 27.6944C32.7326 27.0807 32.9552 26.554 33.4004 26.1142C33.8456 25.6745 34.3788 25.4546 35.0001 25.4546C35.6213 25.4546 36.1545 25.6745 36.5997 26.1142C37.0449 26.554 37.2675 27.0807 37.2675 27.6944C37.2675 28.308 37.0449 28.8347 36.5997 29.2745C36.1545 29.7142 35.6213 29.9341 35.0001 29.9341Z" fill="#00B894"/>
</g>
<defs>
<filter id="filter0_d_30_7" x="0" y="0" width="70" height="70" filterUnits="userSpaceOnUse" color-interpolation-filters="sRGB">
<feFlood flood-opacity="0" result="BackgroundImageFix"/>
<feColorMatrix in="SourceAlpha" type="matrix" values="0 0 0 0 0 0 0 0 0 0 0 0 0 0 0 0 0 0 127 0" result="hardAlpha"/>
<feOffset/>
<feGaussianBlur stdDeviation="4"/>
<feComposite in2="hardAlpha" operator="out"/>
<feColorMatrix type="matrix" values="0 0 0 0 0 0 0 0 0 0 0 0 0 0 0 0 0 0 0.1 0"/>
<feBlend mode="normal" in2="BackgroundImageFix" result="effect1_dropShadow_30_7"/>
<feBlend mode="normal" in="SourceGraphic" in2="effect1_dropShadow_30_7" result="shape"/>
</filter>
</defs>
</svg>
