<svg width="77" height="77" viewBox="0 0 77 77" fill="none" xmlns="http://www.w3.org/2000/svg">
<circle cx="38.5" cy="38.5" r="36.5" stroke="#00B894" stroke-width="4"/>
<g clip-path="url(#clip0_67_49)">
<path fill-rule="evenodd" clip-rule="evenodd" d="M26.1375 47.4C26.2598 47.237 26.4183 47.1047 26.6005 47.0136C26.7828 46.9224 26.9837 46.875 27.1875 46.875H33.75C34.0981 46.875 34.4319 47.0133 34.6781 47.2594C34.9242 47.5056 35.0625 47.8394 35.0625 48.1875C35.0625 48.5356 34.9242 48.8694 34.6781 49.1156C34.4319 49.3617 34.0981 49.5 33.75 49.5H27.8438L21.9375 57.375H56.0625L50.1562 49.5H44.25C43.9019 49.5 43.5681 49.3617 43.3219 49.1156C43.0758 48.8694 42.9375 48.5356 42.9375 48.1875C42.9375 47.8394 43.0758 47.5056 43.3219 47.2594C43.5681 47.0133 43.9019 46.875 44.25 46.875H50.8125C51.0163 46.875 51.2172 46.9224 51.3995 47.0136C51.5817 47.1047 51.7402 47.237 51.8625 47.4L59.7375 57.9C59.8837 58.095 59.9728 58.3269 59.9947 58.5696C60.0166 58.8124 59.9704 59.0565 59.8614 59.2745C59.7524 59.4925 59.5849 59.6758 59.3775 59.804C59.1702 59.9321 58.9312 60 58.6875 60H19.3125C19.0688 60 18.8298 59.9321 18.6225 59.804C18.4151 59.6758 18.2476 59.4925 18.1386 59.2745C18.0296 59.0565 17.9834 58.8124 18.0053 58.5696C18.0272 58.3269 18.1163 58.095 18.2625 57.9L26.1375 47.4Z" fill="#00B894"/>
<path fill-rule="evenodd" clip-rule="evenodd" d="M28.5 28.5C28.5002 26.4793 29.0834 24.5017 30.1797 22.8043C31.276 21.1069 32.8388 19.7618 34.6806 18.9306C36.5223 18.0993 38.5648 17.8172 40.563 18.118C42.5611 18.4187 44.43 19.2897 45.9455 20.6263C47.4609 21.9629 48.5585 23.7084 49.1065 25.6533C49.6545 27.5983 49.6297 29.66 49.035 31.5912C48.4403 33.5223 47.301 35.2409 45.7538 36.5406C44.2067 37.8404 42.3173 38.666 40.3125 38.9186V53.4375C40.3125 53.7856 40.1742 54.1194 39.9281 54.3656C39.6819 54.6117 39.3481 54.75 39 54.75C38.6519 54.75 38.3181 54.6117 38.0719 54.3656C37.8258 54.1194 37.6875 53.7856 37.6875 53.4375V38.9213C35.149 38.6014 32.8147 37.3658 31.1229 35.4464C29.4312 33.527 28.4985 31.0559 28.5 28.4974V28.5Z" fill="#00B894"/>
</g>
<defs>
<clipPath id="clip0_67_49">
<rect width="42" height="42" fill="white" transform="translate(18 18)"/>
</clipPath>
</defs>
</svg>
