<svg width="77" height="77" viewBox="0 0 77 77" fill="none" xmlns="http://www.w3.org/2000/svg">
<circle cx="38.5" cy="38.5" r="36.5" stroke="#00B894" stroke-width="4"/>
<path d="M37.3795 22.6078C37.9395 21.1308 40.0588 21.1308 40.6205 22.6078L44.243 32.6422C44.3694 32.9691 44.5919 33.25 44.8812 33.4478C45.1706 33.6455 45.5131 33.7509 45.8635 33.75H54.7658C56.4108 33.75 57.1283 35.7975 55.835 36.8003L49.5 42.5C49.2162 42.7182 49.0089 43.0206 48.9076 43.3639C48.8064 43.7072 48.8165 44.0738 48.9365 44.411L51.25 54.2162C51.8135 55.7912 49.99 57.144 48.611 56.1745L40.0063 50.7145C39.7116 50.5074 39.3602 50.3963 39 50.3963C38.6398 50.3963 38.2884 50.5074 37.9938 50.7145L29.389 56.1745C28.0118 57.144 26.1865 55.7895 26.75 54.2162L29.0635 44.411C29.1835 44.0738 29.1936 43.7072 29.0924 43.3639C28.9912 43.0206 28.7838 42.7182 28.5 42.5L22.165 36.8003C20.87 35.7975 21.591 33.75 23.2325 33.75H32.1348C32.4853 33.7512 32.8279 33.6459 33.1172 33.4481C33.4066 33.2503 33.6291 32.9693 33.7553 32.6422L37.3778 22.6078H37.3795Z" fill="#00B894" stroke="#00B894" stroke-width="2" stroke-linecap="round" stroke-linejoin="round"/>
</svg>
