<svg width="77" height="77" viewBox="0 0 77 77" fill="none" xmlns="http://www.w3.org/2000/svg">
<circle cx="38.5" cy="38.5" r="36.5" stroke="#00B894" stroke-width="4"/>
<path d="M30.6 38.6849C34.6622 38.6849 37.95 35.4196 37.95 31.3852C37.95 27.3509 34.6622 24.0856 30.6 24.0856C26.5378 24.0856 23.25 27.3509 23.25 31.3852C23.25 35.4196 26.5378 38.6849 30.6 38.6849ZM35.64 40.7705H35.0953C33.7303 41.4223 32.2144 41.8133 30.6 41.8133C28.9856 41.8133 27.4762 41.4223 26.1047 40.7705H25.56C21.3862 40.7705 18 44.1336 18 48.2787V50.1558C18 51.8829 19.4109 53.2842 21.15 53.2842H40.05C41.7891 53.2842 43.2 51.8829 43.2 50.1558V48.2787C43.2 44.1336 39.8137 40.7705 35.64 40.7705ZM49.5 38.6849C52.9781 38.6849 55.8 35.8823 55.8 32.428C55.8 28.9737 52.9781 26.1712 49.5 26.1712C46.0219 26.1712 43.2 28.9737 43.2 32.428C43.2 35.8823 46.0219 38.6849 49.5 38.6849ZM52.65 40.7705H52.4006C51.4884 41.0833 50.5238 41.2919 49.5 41.2919C48.4762 41.2919 47.5116 41.0833 46.5994 40.7705H46.35C45.0112 40.7705 43.7775 41.155 42.6947 41.7742C44.2959 43.4883 45.3 45.7629 45.3 48.2787V50.7815C45.3 50.9248 45.2672 51.0617 45.2606 51.1986H56.85C58.5891 51.1986 60 49.7973 60 48.0702C60 44.0358 56.7122 40.7705 52.65 40.7705Z" fill="#00B894"/>
</svg>
